<svg width="24" height="24" viewBox="0 0 24 24" fill="none" xmlns="http://www.w3.org/2000/svg">
<path d="M19.5475 4.27854C17.5975 1.48758 13.7463 0.660335 10.9616 2.43452L6.07114 5.55146C5.41048 5.96709 4.84381 6.516 4.40736 7.1631C3.9709 7.81019 3.67426 8.54123 3.5364 9.30948C3.30311 10.6036 3.50816 11.9385 4.11908 13.1029C3.70046 13.738 3.41495 14.4513 3.27979 15.1997C3.14047 15.9835 3.15905 16.7871 3.33444 17.5636C3.50982 18.3401 3.83849 19.0737 4.30116 19.7214C6.25157 22.5127 10.1028 23.3395 12.887 21.5655L17.7776 18.4485C18.4383 18.0329 19.005 17.484 19.4414 16.8369C19.8779 16.1898 20.1745 15.4588 20.3123 14.6905C20.5455 13.3964 20.3407 12.0615 19.73 10.8969C20.1486 10.2619 20.4339 9.54866 20.569 8.80023C20.7084 8.0165 20.6899 7.21282 20.5145 6.43635C20.3391 5.65987 20.0104 4.92626 19.5476 4.27854" fill="url(#paint0_linear_301_26)"/>
<path d="M10.6518 20.0306C9.88221 20.2307 9.06972 20.1898 8.32409 19.9134C7.57846 19.637 6.93561 19.1385 6.48237 18.4851C6.20408 18.0956 6.00639 17.6544 5.90089 17.1874C5.79539 16.7205 5.78421 16.2372 5.86801 15.7659C5.89638 15.6111 5.93543 15.4585 5.98487 15.3092L6.07697 15.0283L6.32753 15.2124C6.90617 15.6375 7.55315 15.9608 8.24059 16.1682L8.42236 16.2233L8.40561 16.4047C8.3834 16.6628 8.45328 16.9204 8.60286 17.1319C8.73926 17.3287 8.93278 17.4789 9.15728 17.5622C9.38177 17.6456 9.62643 17.658 9.85821 17.5978C9.9645 17.5694 10.0658 17.5249 10.1586 17.4658L15.0492 14.3492C15.1689 14.2739 15.2716 14.1744 15.3507 14.0572C15.4298 13.94 15.4836 13.8076 15.5087 13.6684C15.5338 13.5263 15.5304 13.3807 15.4986 13.24C15.4668 13.0993 15.4073 12.9663 15.3236 12.8488C15.1871 12.6519 14.9935 12.5017 14.7689 12.4183C14.5444 12.335 14.2996 12.3225 14.0677 12.3826C13.9616 12.411 13.8604 12.4555 13.7677 12.5145L11.9015 13.7042C11.5946 13.8993 11.2597 14.0464 10.9084 14.1403C10.1388 14.3404 9.32633 14.2995 8.58071 14.0231C7.83509 13.7467 7.19226 13.2482 6.73902 12.5948C6.46072 12.2053 6.26302 11.7641 6.15752 11.2972C6.05202 10.8302 6.04085 10.3469 6.12466 9.8756C6.20754 9.41363 6.38593 8.97403 6.64842 8.58494C6.9109 8.19585 7.25171 7.86583 7.64903 7.61598L12.5392 4.49913C12.8462 4.30369 13.1814 4.15644 13.533 4.0625C14.3026 3.8624 15.1151 3.90331 15.8607 4.17969C16.6063 4.45607 17.2491 4.95461 17.7024 5.60799C17.9807 5.9975 18.1783 6.43868 18.2838 6.90562C18.3893 7.37257 18.4005 7.85588 18.3167 8.32721C18.2882 8.48192 18.2492 8.63451 18.1999 8.7839L18.1078 9.06474L17.8573 8.88099C17.2787 8.45558 16.6317 8.13217 15.9441 7.92474L15.7624 7.86957L15.7791 7.68817C15.8011 7.43012 15.7313 7.17259 15.5819 6.96104C15.4455 6.76423 15.252 6.61402 15.0275 6.53069C14.803 6.44737 14.5583 6.43495 14.3265 6.49511C14.2202 6.52351 14.1189 6.56804 14.0261 6.62712L9.13549 9.74384C9.01585 9.81913 8.91322 9.91855 8.83416 10.0357C8.75511 10.1529 8.70136 10.2853 8.67636 10.4245C8.65111 10.5665 8.65445 10.7122 8.68618 10.8529C8.71792 10.9937 8.7774 11.1267 8.86116 11.2442C8.99765 11.441 9.19124 11.5913 9.41581 11.6746C9.64038 11.758 9.88512 11.7705 10.117 11.7104C10.2233 11.6819 10.3246 11.6374 10.4174 11.5783L12.2834 10.3891C12.5901 10.1937 12.925 10.0466 13.2763 9.95266C14.0459 9.75256 14.8584 9.79346 15.604 10.0698C16.3497 10.3462 16.9925 10.8448 17.4457 11.4982C17.724 11.8877 17.9217 12.3288 18.0272 12.7958C18.1327 13.2627 18.1439 13.746 18.0601 14.2174C17.9772 14.6794 17.7988 15.119 17.5363 15.5081C17.2738 15.8973 16.933 16.2274 16.5357 16.4773L11.6455 19.5939C11.3385 19.7894 11.0034 19.9366 10.6517 20.0306" fill="white"/>
<defs>
<linearGradient id="paint0_linear_301_26" x1="8" y1="7.5" x2="14.5" y2="17" gradientUnits="userSpaceOnUse">
<stop stop-color="#ED9209"/>
<stop offset="1" stop-color="#00A4EF"/>
</linearGradient>
</defs>
</svg>
