<svg width="256" height="256" viewBox="0 0 256 256" fill="none" xmlns="http://www.w3.org/2000/svg">
<path d="M208.507 45.6378C187.707 15.8676 146.627 7.04357 116.924 25.9682L64.7588 59.2156C57.7118 63.649 51.6673 69.504 47.0118 76.4063C42.3563 83.3087 39.1921 91.1064 37.7216 99.3012C35.2332 113.105 37.4204 127.344 43.9368 139.765C39.4716 146.538 36.4261 154.147 34.9844 162.131C33.4983 170.49 33.6965 179.063 35.5673 187.345C37.4381 195.627 40.9439 203.453 45.879 210.362C66.6834 240.135 107.764 248.955 137.462 230.032L189.627 196.784C196.675 192.351 202.72 186.496 207.375 179.594C212.031 172.692 215.195 164.894 216.664 156.699C219.153 142.895 216.967 128.656 210.454 116.234C214.918 109.461 217.962 101.852 219.402 93.8692C220.889 85.5094 220.692 76.9367 218.821 68.6544C216.95 60.372 213.444 52.5467 208.508 45.6378" fill="url(#paint0_linear_301_30)"/>
<path d="M113.619 213.659C105.41 215.794 96.7437 215.358 88.7903 212.41C80.8369 209.462 73.9799 204.144 69.1453 197.174C66.1768 193.019 64.0681 188.313 62.9428 183.333C61.8175 178.352 61.6982 173.197 62.5921 168.169C62.8947 166.519 63.3113 164.891 63.8387 163.298L64.8211 160.302L67.4937 162.265C73.6658 166.8 80.567 170.248 87.8997 172.461L89.8385 173.049L89.6599 174.984C89.423 177.737 90.1683 180.484 91.7639 182.74C93.2188 184.839 95.283 186.442 97.6776 187.331C100.072 188.219 102.682 188.352 105.154 187.71C106.288 187.407 107.369 186.932 108.358 186.302L160.525 153.058C161.802 152.255 162.897 151.194 163.741 149.943C164.584 148.693 165.159 147.281 165.426 145.796C165.694 144.281 165.657 142.727 165.318 141.226C164.979 139.726 164.345 138.307 163.451 137.054C161.996 134.954 159.931 133.351 157.535 132.462C155.14 131.573 152.529 131.44 150.056 132.081C148.924 132.384 147.844 132.859 146.856 133.488L126.949 146.178C123.676 148.259 120.104 149.828 116.356 150.83C108.147 152.964 99.4809 152.528 91.5276 149.58C83.5743 146.632 76.7174 141.314 71.8829 134.345C68.9143 130.19 66.8055 125.484 65.6802 120.503C64.5549 115.522 64.4357 110.367 65.3297 105.34C66.2138 100.412 68.1166 95.723 70.9164 91.5727C73.7163 87.4224 77.3515 83.9022 81.5897 81.2371L133.752 47.9907C137.027 45.906 140.601 44.3354 144.352 43.3333C152.561 41.199 161.227 41.6353 169.181 44.5833C177.134 47.5314 183.991 52.8492 188.825 59.8185C191.794 63.9734 193.902 68.6792 195.028 73.66C196.153 78.6407 196.272 83.7961 195.378 88.8235C195.074 90.4739 194.658 92.1015 194.132 93.6949L193.149 96.6905L190.478 94.7305C184.307 90.1928 177.405 86.7432 170.071 84.5305L168.132 83.9421L168.311 82.0071C168.546 79.2546 167.8 76.5076 166.207 74.2511C164.752 72.1518 162.688 70.5495 160.293 69.6607C157.898 68.7719 155.289 68.6394 152.816 69.2811C151.683 69.5841 150.602 70.0591 149.612 70.6893L97.4453 103.934C96.169 104.737 95.0743 105.798 94.2311 107.048C93.3878 108.298 92.8145 109.71 92.5479 111.194C92.2785 112.71 92.3142 114.263 92.6526 115.765C92.9911 117.266 93.6256 118.685 94.5191 119.938C95.9749 122.038 98.0399 123.64 100.435 124.529C102.831 125.419 105.441 125.552 107.915 124.911C109.048 124.607 110.129 124.132 111.119 123.502L131.022 110.817C134.294 108.733 137.866 107.163 141.614 106.162C149.823 104.027 158.49 104.464 166.443 107.412C174.396 110.36 181.253 115.678 186.088 122.647C189.056 126.802 191.165 131.508 192.291 136.488C193.416 141.469 193.535 146.625 192.641 151.652C191.756 156.58 189.853 161.269 187.054 165.42C184.254 169.571 180.619 173.092 176.381 175.758L124.219 209.002C120.944 211.087 117.369 212.657 113.619 213.659" fill="white"/>
<defs>
<linearGradient id="paint0_linear_301_30" x1="85.3333" y1="80" x2="154.667" y2="181.333" gradientUnits="userSpaceOnUse">
<stop stop-color="#ED9209"/>
<stop offset="1" stop-color="#00A4EF"/>
</linearGradient>
</defs>
</svg>
